<?xml version="1.0" encoding="UTF-8"?>
<svg width="72px" height="72px" viewBox="0 0 72 72" version="1.1" xmlns="http://www.w3.org/2000/svg" xmlns:xlink="http://www.w3.org/1999/xlink">
    <title>icons/ic_logo1@1x</title>
    <defs>
        <linearGradient x1="42.2782944%" y1="27.3490331%" x2="52.8801545%" y2="71.348471%" id="linearGradient-1">
            <stop stop-color="#369569" offset="0%"></stop>
            <stop stop-color="#289261" offset="48.2214441%"></stop>
            <stop stop-color="#0F7144" offset="100%"></stop>
        </linearGradient>
        <linearGradient x1="60.8862299%" y1="53.3595165%" x2="42.3778233%" y2="47.077259%" id="linearGradient-2">
            <stop stop-color="#08B666" offset="0%"></stop>
            <stop stop-color="#21DD84" offset="40.7846721%"></stop>
            <stop stop-color="#35E996" offset="67.7072775%"></stop>
            <stop stop-color="#70F7B8" offset="100%"></stop>
        </linearGradient>
        <linearGradient x1="70.1979867%" y1="13.1067961%" x2="48.6966554%" y2="63.1717885%" id="linearGradient-3">
            <stop stop-color="#116F44" offset="0%"></stop>
            <stop stop-color="#57FAAD" offset="49%"></stop>
            <stop stop-color="#2D7252" offset="100%"></stop>
        </linearGradient>
    </defs>
    <g id="icons/ic_logo1" stroke="none" stroke-width="1" fill="none" fill-rule="evenodd">
        <g id="Logo_EE-01" transform="translate(20.000000, 4.000000)" fill-rule="nonzero">
            <path d="M21.0468056,40.6203247 C34.7561348,31.5602084 4.74579972,16.0730838 21.9113084,0 C12.9640709,19.2847337 55.8998215,37.7702635 15.0630544,64.9598838 C13.9586154,65.6960414 27.8181336,56.2520848 21.0468056,40.6203247 Z" id="路径" fill="url(#linearGradient-1)"></path>
            <path d="M5.07374853,18.7423654 C2.39577655,23.0499743 4.11143827,29.8286146 8.73969237,36.6907358 C12.8070571,42.7143387 18.2436518,49.0625892 18.4031203,51.8341515 C20.1371118,49.4076431 20.0234675,46.3262743 14.3485864,36.6554883 C12.0482067,32.7318911 7.15233869,25.4356698 8.4830763,17.0300816 C10.3032174,5.48932587 21.2405609,0 21.2405609,0 C21.2405609,0 12.1031958,8.71910497 14.9333045,19.1078258 C16.8267645,26.0497174 22.5273072,34.7836635 24.9596609,41.3693704 C30.1231428,55.3403448 14.3870789,65 14.3870789,65 C14.3870789,65 14.8673175,61.4752554 9.27675314,53.3293852 C2.82285901,43.9275929 -5.55565564,32.7430219 5.07374853,18.7423654 Z" id="路径" fill="url(#linearGradient-2)"></path>
            <path d="M17.7047976,42.5204204 C22.3360013,49.173313 19.2854849,61.1706652 14.5109299,65 C20.189554,58.2253069 14.9945017,50.701356 9.57199866,42.8544492 C3.77487079,34.4575945 0.87343983,26.4944235 4.80317768,19 C2.45030448,28.9987162 13.4080803,45.2498596 17.7047976,42.5204204 Z" id="路径" fill="url(#linearGradient-3)"></path>
        </g>
    </g>
</svg>